<svg width="19" height="310" viewBox="0 0 19 310" fill="none" xmlns="http://www.w3.org/2000/svg">
<path d="M16.074 0.598V12.64H14.355V2.416L11.556 4.126L10.809 2.902L14.553 0.598H16.074ZM18.621 11.614V13H11.313V11.614H18.621ZM14.076 27.373C14.886 27.373 15.576 27.526 16.146 27.832C16.716 28.138 17.151 28.555 17.451 29.083C17.751 29.611 17.901 30.202 17.901 30.856C17.901 31.414 17.805 31.96 17.613 32.494C17.421 33.028 17.109 33.589 16.677 34.177C16.251 34.759 15.69 35.407 14.994 36.121C14.298 36.835 13.446 37.651 12.438 38.569H18.189L17.982 40H10.467V38.641C11.379 37.765 12.159 36.997 12.807 36.337C13.461 35.671 14.001 35.086 14.427 34.582C14.853 34.078 15.189 33.625 15.435 33.223C15.681 32.815 15.852 32.431 15.948 32.071C16.05 31.705 16.101 31.327 16.101 30.937C16.101 30.271 15.912 29.746 15.534 29.362C15.162 28.978 14.643 28.786 13.977 28.786C13.383 28.786 12.894 28.891 12.51 29.101C12.132 29.305 11.751 29.638 11.367 30.1L10.215 29.209C10.701 28.603 11.25 28.147 11.862 27.841C12.474 27.529 13.212 27.373 14.076 27.373ZM14.049 54.373C14.847 54.373 15.534 54.514 16.11 54.796C16.692 55.078 17.139 55.456 17.451 55.93C17.769 56.404 17.928 56.923 17.928 57.487C17.928 57.991 17.817 58.447 17.595 58.855C17.379 59.257 17.085 59.59 16.713 59.854C16.347 60.118 15.939 60.298 15.489 60.394C15.987 60.436 16.449 60.577 16.875 60.817C17.307 61.051 17.655 61.387 17.919 61.825C18.189 62.257 18.324 62.794 18.324 63.436C18.324 64.15 18.141 64.795 17.775 65.371C17.415 65.941 16.905 66.394 16.245 66.73C15.585 67.06 14.817 67.225 13.941 67.225C13.209 67.225 12.495 67.087 11.799 66.811C11.109 66.535 10.521 66.109 10.035 65.533L11.151 64.597C11.505 65.011 11.922 65.32 12.402 65.524C12.882 65.722 13.374 65.821 13.878 65.821C14.7 65.821 15.345 65.608 15.813 65.182C16.287 64.75 16.524 64.159 16.524 63.409C16.524 62.839 16.416 62.389 16.2 62.059C15.99 61.729 15.696 61.492 15.318 61.348C14.946 61.204 14.517 61.132 14.031 61.132H12.978L13.185 59.818H13.923C14.319 59.818 14.691 59.743 15.039 59.593C15.387 59.443 15.669 59.215 15.885 58.909C16.101 58.597 16.209 58.207 16.209 57.739C16.209 57.091 15.99 56.596 15.552 56.254C15.114 55.906 14.58 55.732 13.95 55.732C13.422 55.732 12.957 55.828 12.555 56.02C12.153 56.206 11.751 56.488 11.349 56.866L10.413 55.84C10.947 55.336 11.52 54.967 12.132 54.733C12.744 54.493 13.383 54.373 14.049 54.373ZM14.031 81.373L15.48 81.967L12.24 89.689H18.792V91.048H10.422V89.824L14.031 81.373ZM17.244 86.26V94H15.579L15.57 89.977L15.804 86.26H17.244ZM18.054 108.598L17.811 109.93H12.969V113.647C13.341 113.455 13.692 113.323 14.022 113.251C14.358 113.173 14.706 113.134 15.066 113.134C15.738 113.134 16.329 113.287 16.839 113.593C17.349 113.899 17.748 114.346 18.036 114.934C18.324 115.516 18.468 116.221 18.468 117.049C18.468 117.877 18.291 118.606 17.937 119.236C17.583 119.86 17.082 120.349 16.434 120.703C15.792 121.051 15.036 121.225 14.166 121.225C13.392 121.225 12.705 121.087 12.105 120.811C11.505 120.535 10.965 120.154 10.485 119.668L11.529 118.669C11.895 119.053 12.291 119.341 12.717 119.533C13.149 119.725 13.623 119.821 14.139 119.821C14.931 119.821 15.549 119.581 15.993 119.101C16.443 118.621 16.668 117.928 16.668 117.022C16.668 116.374 16.572 115.864 16.38 115.492C16.194 115.12 15.939 114.856 15.615 114.7C15.291 114.538 14.928 114.457 14.526 114.457C14.184 114.457 13.872 114.493 13.59 114.565C13.314 114.631 13.002 114.733 12.654 114.871H11.322V108.598H18.054ZM15.291 135.373C15.777 135.373 16.227 135.439 16.641 135.571C17.055 135.697 17.436 135.877 17.784 136.111L17.109 137.254C16.833 137.08 16.539 136.951 16.227 136.867C15.921 136.777 15.603 136.732 15.273 136.732C14.643 136.732 14.103 136.942 13.653 137.362C13.209 137.776 12.87 138.367 12.636 139.135C12.402 139.903 12.288 140.809 12.294 141.853L12.312 142.483C12.312 143.989 12.498 145.096 12.87 145.804C13.248 146.512 13.875 146.866 14.751 146.866C15.495 146.866 16.05 146.596 16.416 146.056C16.788 145.516 16.974 144.79 16.974 143.878C16.974 143.218 16.887 142.696 16.713 142.312C16.545 141.928 16.305 141.655 15.993 141.493C15.687 141.325 15.327 141.241 14.913 141.241C14.313 141.241 13.776 141.418 13.302 141.772C12.834 142.126 12.45 142.588 12.15 143.158L12.114 141.745C12.522 141.085 12.984 140.611 13.5 140.323C14.022 140.029 14.598 139.882 15.228 139.882C15.87 139.882 16.455 140.026 16.983 140.314C17.511 140.602 17.934 141.04 18.252 141.628C18.576 142.21 18.738 142.942 18.738 143.824C18.738 144.724 18.561 145.504 18.207 146.164C17.859 146.818 17.382 147.325 16.776 147.685C16.176 148.045 15.501 148.225 14.751 148.225C13.983 148.225 13.332 148.081 12.798 147.793C12.264 147.499 11.832 147.088 11.502 146.56C11.172 146.026 10.929 145.387 10.773 144.643C10.623 143.899 10.548 143.077 10.548 142.177C10.548 140.803 10.737 139.606 11.115 138.586C11.493 137.566 12.033 136.777 12.735 136.219C13.443 135.655 14.295 135.373 15.291 135.373ZM13.455 175.189L11.835 174.694L16.632 163.993H10.872V162.598H18.378V163.876L13.455 175.189ZM18.396 192.55C18.396 193.15 18.213 193.669 17.847 194.107C17.487 194.545 16.965 194.953 16.281 195.331C17.091 195.679 17.727 196.135 18.189 196.699C18.657 197.257 18.891 197.914 18.891 198.67C18.891 199.336 18.717 199.939 18.369 200.479C18.027 201.019 17.532 201.445 16.884 201.757C16.242 202.069 15.471 202.225 14.571 202.225C13.665 202.225 12.894 202.069 12.258 201.757C11.628 201.439 11.148 201.016 10.818 200.488C10.488 199.954 10.323 199.36 10.323 198.706C10.323 197.95 10.545 197.311 10.989 196.789C11.439 196.261 12.033 195.829 12.771 195.493C12.123 195.163 11.634 194.779 11.304 194.341C10.98 193.897 10.818 193.33 10.818 192.64C10.818 192.082 10.932 191.599 11.16 191.191C11.388 190.777 11.688 190.435 12.06 190.165C12.432 189.895 12.84 189.697 13.284 189.571C13.734 189.439 14.175 189.373 14.607 189.373C15.087 189.373 15.552 189.439 16.002 189.571C16.452 189.697 16.857 189.892 17.217 190.156C17.577 190.414 17.862 190.744 18.072 191.146C18.288 191.542 18.396 192.01 18.396 192.55ZM17.1 198.679C17.1 198.145 16.968 197.722 16.704 197.41C16.44 197.098 16.071 196.837 15.597 196.627C15.123 196.411 14.568 196.195 13.932 195.979C13.608 196.135 13.305 196.33 13.023 196.564C12.747 196.798 12.525 197.089 12.357 197.437C12.195 197.779 12.114 198.193 12.114 198.679C12.114 199.357 12.321 199.891 12.735 200.281C13.149 200.671 13.761 200.866 14.571 200.866C15.393 200.866 16.02 200.656 16.452 200.236C16.884 199.816 17.1 199.297 17.1 198.679ZM12.51 192.658C12.51 193.102 12.612 193.456 12.816 193.72C13.02 193.984 13.314 194.203 13.698 194.377C14.088 194.545 14.55 194.719 15.084 194.899C15.63 194.575 16.035 194.248 16.299 193.918C16.569 193.588 16.704 193.156 16.704 192.622C16.704 192.028 16.521 191.554 16.155 191.2C15.795 190.846 15.279 190.669 14.607 190.669C13.947 190.669 13.431 190.843 13.059 191.191C12.693 191.539 12.51 192.028 12.51 192.658ZM14.436 216.391C15.354 216.391 16.119 216.598 16.731 217.012C17.343 217.426 17.802 218.011 18.108 218.767C18.414 219.523 18.567 220.414 18.567 221.44C18.567 222.682 18.435 223.741 18.171 224.617C17.913 225.493 17.508 226.228 16.956 226.822C16.41 227.416 15.708 227.917 14.85 228.325C13.998 228.733 12.981 229.093 11.799 229.405L11.412 228.118C12.57 227.8 13.533 227.419 14.301 226.975C15.075 226.531 15.663 225.973 16.065 225.301C16.473 224.629 16.701 223.795 16.749 222.799L16.776 221.926C16.776 220.918 16.695 220.108 16.533 219.496C16.377 218.884 16.125 218.44 15.777 218.164C15.435 217.888 14.988 217.75 14.436 217.75C13.68 217.75 13.104 217.987 12.708 218.461C12.312 218.929 12.114 219.628 12.114 220.558C12.114 221.476 12.306 222.139 12.69 222.547C13.074 222.955 13.596 223.159 14.256 223.159C14.838 223.159 15.345 223 15.777 222.682C16.215 222.364 16.629 221.929 17.019 221.377L17.01 222.736C16.626 223.252 16.179 223.675 15.669 224.005C15.165 224.329 14.568 224.491 13.878 224.491C13.2 224.491 12.594 224.332 12.06 224.014C11.526 223.696 11.106 223.243 10.8 222.655C10.494 222.061 10.341 221.353 10.341 220.531C10.341 219.643 10.524 218.893 10.89 218.281C11.256 217.663 11.748 217.195 12.366 216.877C12.984 216.553 13.674 216.391 14.436 216.391ZM5.28106 243.598V255.64H3.56206V245.416L0.763063 247.126L0.0160625 245.902L3.76006 243.598H5.28106ZM7.82806 254.614V256H0.520063V254.614H7.82806ZM14.607 243.373C15.969 243.373 16.998 243.931 17.694 245.047C18.39 246.157 18.738 247.738 18.738 249.79C18.738 251.848 18.39 253.435 17.694 254.551C16.998 255.667 15.969 256.225 14.607 256.225C13.245 256.225 12.216 255.667 11.52 254.551C10.824 253.435 10.476 251.848 10.476 249.79C10.476 247.738 10.824 246.157 11.52 245.047C12.216 243.931 13.245 243.373 14.607 243.373ZM14.607 244.732C13.869 244.732 13.29 245.125 12.87 245.911C12.456 246.697 12.249 247.99 12.249 249.79C12.249 250.72 12.294 251.509 12.384 252.157C12.474 252.805 12.612 253.327 12.798 253.723C12.99 254.119 13.236 254.41 13.536 254.596C13.836 254.776 14.193 254.866 14.607 254.866C15.105 254.866 15.531 254.695 15.885 254.353C16.239 254.011 16.506 253.465 16.686 252.715C16.872 251.965 16.965 250.99 16.965 249.79C16.965 248.554 16.884 247.567 16.722 246.829C16.566 246.085 16.314 245.551 15.966 245.227C15.618 244.897 15.165 244.732 14.607 244.732ZM16.371 245.164L16.821 246.523L12.978 254.326L12.375 253.237L16.371 245.164ZM5.28106 270.598V282.64H3.56206V272.416L0.763063 274.126L0.0160625 272.902L3.76006 270.598H5.28106ZM7.82806 281.614V283H0.520063V281.614H7.82806ZM16.074 270.598V282.64H14.355V272.416L11.556 274.126L10.809 272.902L14.553 270.598H16.074ZM18.621 281.614V283H11.313V281.614H18.621ZM5.28106 297.598V309.64H3.56206V299.416L0.763063 301.126L0.0160625 299.902L3.76006 297.598H5.28106ZM7.82806 308.614V310H0.520063V308.614H7.82806ZM14.076 297.373C14.886 297.373 15.576 297.526 16.146 297.832C16.716 298.138 17.151 298.555 17.451 299.083C17.751 299.611 17.901 300.202 17.901 300.856C17.901 301.414 17.805 301.96 17.613 302.494C17.421 303.028 17.109 303.589 16.677 304.177C16.251 304.759 15.69 305.407 14.994 306.121C14.298 306.835 13.446 307.651 12.438 308.569H18.189L17.982 310H10.467V308.641C11.379 307.765 12.159 306.997 12.807 306.337C13.461 305.671 14.001 305.086 14.427 304.582C14.853 304.078 15.189 303.625 15.435 303.223C15.681 302.815 15.852 302.431 15.948 302.071C16.05 301.705 16.101 301.327 16.101 300.937C16.101 300.271 15.912 299.746 15.534 299.362C15.162 298.978 14.643 298.786 13.977 298.786C13.383 298.786 12.894 298.891 12.51 299.101C12.132 299.305 11.751 299.638 11.367 300.1L10.215 299.209C10.701 298.603 11.25 298.147 11.862 297.841C12.474 297.529 13.212 297.373 14.076 297.373Z" fill="#607B96"/>
</svg>
